<mxfile host="app.diagrams.net" modified="2020-09-09T15:37:47.294Z" agent="5.0 (Windows NT 10.0; Win64; x64) AppleWebKit/537.36 (KHTML, like Gecko) Chrome/85.0.4183.83 Safari/537.36" etag="d4DCNdvaB_YZXSCaMue1" version="13.6.9" type="github">
  <diagram id="qrNRG2QdwGCDJDvIBOkv" name="Page-1">
    <mxGraphModel dx="1422" dy="794" grid="1" gridSize="10" guides="1" tooltips="1" connect="1" arrows="1" fold="1" page="1" pageScale="1" pageWidth="850" pageHeight="1100" math="0" shadow="0">
      <root>
        <mxCell id="0" />
        <mxCell id="1" parent="0" />
        <mxCell id="plK-h6cMX_QArB1brINA-1" value="Sudoku" style="rounded=0;whiteSpace=wrap;html=1;strokeWidth=2;fontSize=33;fillColor=#21C0A5;strokeColor=#006658;fontColor=#5C5C5C;" parent="1" vertex="1">
          <mxGeometry x="320" y="590" width="200" height="80" as="geometry" />
        </mxCell>
        <mxCell id="plK-h6cMX_QArB1brINA-2" value="Generator" style="rounded=1;whiteSpace=wrap;html=1;strokeWidth=2;fontSize=33;fillColor=#21C0A5;strokeColor=#006658;fontColor=#5C5C5C;" parent="1" vertex="1">
          <mxGeometry x="130" y="680" width="170" height="80" as="geometry" />
        </mxCell>
        <mxCell id="plK-h6cMX_QArB1brINA-5" value="Solver" style="rounded=1;whiteSpace=wrap;html=1;strokeWidth=2;fontSize=33;fillColor=#21C0A5;strokeColor=#006658;fontColor=#5C5C5C;" parent="1" vertex="1">
          <mxGeometry x="130" y="800" width="170" height="80" as="geometry" />
        </mxCell>
        <mxCell id="plK-h6cMX_QArB1brINA-10" value="" style="endArrow=none;html=1;strokeWidth=5;fontSize=33;entryX=0.5;entryY=1;entryDx=0;entryDy=0;exitX=0.5;exitY=0;exitDx=0;exitDy=0;strokeColor=#006658;fontColor=#5C5C5C;" parent="1" source="plK-h6cMX_QArB1brINA-5" target="plK-h6cMX_QArB1brINA-2" edge="1">
          <mxGeometry width="50" height="50" relative="1" as="geometry">
            <mxPoint x="185" y="770" as="sourcePoint" />
            <mxPoint x="230" y="730" as="targetPoint" />
          </mxGeometry>
        </mxCell>
        <mxCell id="plK-h6cMX_QArB1brINA-16" value="" style="endArrow=none;html=1;strokeWidth=5;fontSize=33;exitX=0;exitY=0.5;exitDx=0;exitDy=0;strokeColor=#006658;fontColor=#5C5C5C;entryX=0.5;entryY=0;entryDx=0;entryDy=0;" parent="1" target="plK-h6cMX_QArB1brINA-2" edge="1">
          <mxGeometry width="50" height="50" relative="1" as="geometry">
            <mxPoint x="320" y="650" as="sourcePoint" />
            <mxPoint x="200" y="650" as="targetPoint" />
            <Array as="points">
              <mxPoint x="215" y="650" />
            </Array>
          </mxGeometry>
        </mxCell>
        <mxCell id="plK-h6cMX_QArB1brINA-21" style="edgeStyle=orthogonalEdgeStyle;curved=0;rounded=1;sketch=0;orthogonalLoop=1;jettySize=auto;html=1;exitX=0.5;exitY=0;exitDx=0;exitDy=0;entryX=0.5;entryY=1;entryDx=0;entryDy=0;strokeColor=#006658;fillColor=#21C0A5;fontColor=#5C5C5C;strokeWidth=5;" parent="1" source="plK-h6cMX_QArB1brINA-18" target="plK-h6cMX_QArB1brINA-19" edge="1">
          <mxGeometry relative="1" as="geometry" />
        </mxCell>
        <mxCell id="plK-h6cMX_QArB1brINA-24" value="" style="edgeStyle=orthogonalEdgeStyle;curved=0;rounded=1;sketch=0;orthogonalLoop=1;jettySize=auto;html=1;strokeColor=#006658;strokeWidth=5;fillColor=#21C0A5;fontColor=#5C5C5C;" parent="1" source="plK-h6cMX_QArB1brINA-18" target="plK-h6cMX_QArB1brINA-19" edge="1">
          <mxGeometry relative="1" as="geometry" />
        </mxCell>
        <mxCell id="plK-h6cMX_QArB1brINA-18" value="Cell" style="rounded=1;whiteSpace=wrap;html=1;strokeWidth=2;fontSize=33;fillColor=#21C0A5;strokeColor=#006658;fontColor=#5C5C5C;" parent="1" vertex="1">
          <mxGeometry x="335" y="470" width="170" height="80" as="geometry" />
        </mxCell>
        <mxCell id="plK-h6cMX_QArB1brINA-19" value="Button" style="rounded=1;whiteSpace=wrap;html=1;strokeWidth=2;fontSize=33;fillColor=#21C0A5;strokeColor=#006658;fontColor=#5C5C5C;" parent="1" vertex="1">
          <mxGeometry x="335" y="330" width="170" height="80" as="geometry" />
        </mxCell>
        <mxCell id="plK-h6cMX_QArB1brINA-22" value="" style="endArrow=none;html=1;strokeWidth=5;fontSize=33;entryX=0.5;entryY=1;entryDx=0;entryDy=0;exitX=0.5;exitY=0;exitDx=0;exitDy=0;strokeColor=#006658;fontColor=#5C5C5C;" parent="1" edge="1">
          <mxGeometry width="50" height="50" relative="1" as="geometry">
            <mxPoint x="419.9999999999999" y="590" as="sourcePoint" />
            <mxPoint x="419.9999999999999" y="550" as="targetPoint" />
          </mxGeometry>
        </mxCell>
        <mxCell id="plK-h6cMX_QArB1brINA-26" value="Renderer" style="rounded=1;whiteSpace=wrap;html=1;strokeWidth=2;fontSize=33;fillColor=#21C0A5;strokeColor=#006658;fontColor=#5C5C5C;" parent="1" vertex="1">
          <mxGeometry x="335" y="720" width="170" height="80" as="geometry" />
        </mxCell>
        <mxCell id="plK-h6cMX_QArB1brINA-27" value="Window" style="rounded=1;whiteSpace=wrap;html=1;strokeWidth=2;fontSize=33;fillColor=#21C0A5;strokeColor=#006658;fontColor=#5C5C5C;" parent="1" vertex="1">
          <mxGeometry x="560" y="720" width="170" height="80" as="geometry" />
        </mxCell>
        <mxCell id="plK-h6cMX_QArB1brINA-29" value="" style="endArrow=none;html=1;strokeColor=#006658;strokeWidth=5;fillColor=#21C0A5;fontColor=#5C5C5C;exitX=0.5;exitY=0;exitDx=0;exitDy=0;" parent="1" source="plK-h6cMX_QArB1brINA-26" edge="1">
          <mxGeometry width="50" height="50" relative="1" as="geometry">
            <mxPoint x="370" y="720" as="sourcePoint" />
            <mxPoint x="420" y="670" as="targetPoint" />
          </mxGeometry>
        </mxCell>
        <mxCell id="plK-h6cMX_QArB1brINA-30" value="" style="endArrow=none;html=1;strokeColor=#006658;strokeWidth=5;fillColor=#21C0A5;fontColor=#5C5C5C;entryX=0.5;entryY=0;entryDx=0;entryDy=0;exitX=1;exitY=0.75;exitDx=0;exitDy=0;" parent="1" source="plK-h6cMX_QArB1brINA-1" target="plK-h6cMX_QArB1brINA-27" edge="1">
          <mxGeometry width="50" height="50" relative="1" as="geometry">
            <mxPoint x="520" y="630" as="sourcePoint" />
            <mxPoint x="640" y="700" as="targetPoint" />
            <Array as="points">
              <mxPoint x="645" y="650" />
            </Array>
          </mxGeometry>
        </mxCell>
        <mxCell id="plK-h6cMX_QArB1brINA-31" value="Texture" style="rounded=1;whiteSpace=wrap;html=1;strokeWidth=2;fontSize=33;fillColor=#21C0A5;strokeColor=#006658;fontColor=#5C5C5C;" parent="1" vertex="1">
          <mxGeometry x="335" y="210" width="170" height="80" as="geometry" />
        </mxCell>
        <mxCell id="plK-h6cMX_QArB1brINA-39" value="" style="endArrow=none;html=1;strokeColor=#006658;strokeWidth=5;fillColor=#21C0A5;fontColor=#5C5C5C;entryX=0.5;entryY=1;entryDx=0;entryDy=0;exitX=0.5;exitY=0;exitDx=0;exitDy=0;" parent="1" source="plK-h6cMX_QArB1brINA-19" target="plK-h6cMX_QArB1brINA-31" edge="1">
          <mxGeometry width="50" height="50" relative="1" as="geometry">
            <mxPoint x="415" y="330" as="sourcePoint" />
            <mxPoint x="465" y="280" as="targetPoint" />
          </mxGeometry>
        </mxCell>
        <mxCell id="Lc8anRScpvRfO8vAxYwv-11" value="" style="endArrow=none;html=1;strokeWidth=5;fontSize=33;exitX=0;exitY=0.5;exitDx=0;exitDy=0;strokeColor=#006658;fontColor=#5C5C5C;entryX=0.5;entryY=1;entryDx=0;entryDy=0;" parent="1" target="Lc8anRScpvRfO8vAxYwv-12" edge="1">
          <mxGeometry width="50" height="50" relative="1" as="geometry">
            <mxPoint x="320" y="610" as="sourcePoint" />
            <mxPoint x="180" y="610" as="targetPoint" />
            <Array as="points">
              <mxPoint x="215" y="610" />
            </Array>
          </mxGeometry>
        </mxCell>
        <mxCell id="Lc8anRScpvRfO8vAxYwv-21" style="edgeStyle=none;rounded=1;sketch=0;orthogonalLoop=1;jettySize=auto;html=1;exitX=0.5;exitY=0;exitDx=0;exitDy=0;entryX=0;entryY=0.5;entryDx=0;entryDy=0;strokeColor=#006658;strokeWidth=5;fillColor=#21C0A5;fontColor=#5C5C5C;" parent="1" source="Lc8anRScpvRfO8vAxYwv-12" target="plK-h6cMX_QArB1brINA-19" edge="1">
          <mxGeometry relative="1" as="geometry">
            <Array as="points">
              <mxPoint x="215" y="370" />
            </Array>
          </mxGeometry>
        </mxCell>
        <mxCell id="Lc8anRScpvRfO8vAxYwv-12" value="Stopwatch" style="rounded=1;whiteSpace=wrap;html=1;strokeWidth=2;fontSize=33;fillColor=#21C0A5;strokeColor=#006658;fontColor=#5C5C5C;" parent="1" vertex="1">
          <mxGeometry x="130" y="470" width="170" height="80" as="geometry" />
        </mxCell>
        <mxCell id="Lc8anRScpvRfO8vAxYwv-19" style="edgeStyle=none;rounded=1;sketch=0;orthogonalLoop=1;jettySize=auto;html=1;exitX=0.5;exitY=0;exitDx=0;exitDy=0;entryX=1;entryY=0.75;entryDx=0;entryDy=0;strokeColor=#006658;strokeWidth=5;fillColor=#21C0A5;fontColor=#5C5C5C;" parent="1" source="Lc8anRScpvRfO8vAxYwv-13" target="plK-h6cMX_QArB1brINA-19" edge="1">
          <mxGeometry relative="1" as="geometry">
            <Array as="points">
              <mxPoint x="625" y="390" />
            </Array>
          </mxGeometry>
        </mxCell>
        <mxCell id="Lc8anRScpvRfO8vAxYwv-13" value="New button" style="rounded=1;whiteSpace=wrap;html=1;strokeWidth=2;fontSize=33;fillColor=#21C0A5;strokeColor=#006658;fontColor=#5C5C5C;" parent="1" vertex="1">
          <mxGeometry x="540" y="470" width="170" height="80" as="geometry" />
        </mxCell>
        <mxCell id="Lc8anRScpvRfO8vAxYwv-20" style="edgeStyle=none;rounded=1;sketch=0;orthogonalLoop=1;jettySize=auto;html=1;exitX=0.5;exitY=0;exitDx=0;exitDy=0;entryX=1;entryY=0.25;entryDx=0;entryDy=0;strokeColor=#006658;strokeWidth=5;fillColor=#21C0A5;fontColor=#5C5C5C;" parent="1" source="Lc8anRScpvRfO8vAxYwv-14" target="plK-h6cMX_QArB1brINA-19" edge="1">
          <mxGeometry relative="1" as="geometry">
            <Array as="points">
              <mxPoint x="815" y="350" />
            </Array>
          </mxGeometry>
        </mxCell>
        <mxCell id="Lc8anRScpvRfO8vAxYwv-14" value="Check button" style="rounded=1;whiteSpace=wrap;html=1;strokeWidth=2;fontSize=33;fillColor=#21C0A5;strokeColor=#006658;fontColor=#5C5C5C;" parent="1" vertex="1">
          <mxGeometry x="730" y="470" width="170" height="80" as="geometry" />
        </mxCell>
        <mxCell id="Lc8anRScpvRfO8vAxYwv-17" value="" style="endArrow=none;html=1;strokeWidth=5;fontSize=33;entryX=0.473;entryY=0.999;entryDx=0;entryDy=0;strokeColor=#006658;fontColor=#5C5C5C;entryPerimeter=0;" parent="1" target="Lc8anRScpvRfO8vAxYwv-13" edge="1">
          <mxGeometry width="50" height="50" relative="1" as="geometry">
            <mxPoint x="520" y="600" as="sourcePoint" />
            <mxPoint x="520" y="580" as="targetPoint" />
            <Array as="points">
              <mxPoint x="620" y="600" />
            </Array>
          </mxGeometry>
        </mxCell>
        <mxCell id="Lc8anRScpvRfO8vAxYwv-18" value="" style="endArrow=none;html=1;strokeWidth=5;fontSize=33;entryX=0.5;entryY=1;entryDx=0;entryDy=0;strokeColor=#006658;fontColor=#5C5C5C;" parent="1" target="Lc8anRScpvRfO8vAxYwv-14" edge="1">
          <mxGeometry width="50" height="50" relative="1" as="geometry">
            <mxPoint x="520" y="630.08" as="sourcePoint" />
            <mxPoint x="620.4100000000001" y="580.0000000000001" as="targetPoint" />
            <Array as="points">
              <mxPoint x="815" y="630" />
            </Array>
          </mxGeometry>
        </mxCell>
      </root>
    </mxGraphModel>
  </diagram>
</mxfile>
